<?xml version="1.0" standalone="no"?>
<!DOCTYPE svg PUBLIC "-//W3C//DTD SVG 20010904//EN"
 "http://www.w3.org/TR/2001/REC-SVG-20010904/DTD/svg10.dtd">
<svg version="1.0" xmlns="http://www.w3.org/2000/svg"
 width="42.000000pt" height="46.000000pt" viewBox="0 0 42.000000 46.000000"
 preserveAspectRatio="xMidYMid meet">

<g transform="translate(0.000000,46.000000) scale(0.100000,-0.100000)"
fill="#000000" stroke="none">
<path d="M90 355 c0 -9 -7 -16 -17 -14 -33 3 -38 -1 -18 -15 12 -8 34 -11 53
-8 27 3 33 8 30 26 -4 26 -48 36 -48 11z"/>
<path d="M321 330 c-19 -16 -39 -26 -44 -23 -6 3 -7 1 -3 -5 6 -10 -27 -36
-46 -37 -3 0 -10 -4 -15 -9 -5 -5 -2 -6 7 -1 8 4 0 -6 -18 -23 l-33 -30 30 -7
c34 -7 44 -40 14 -41 -10 -1 -25 -4 -34 -8 -11 -5 -22 -1 -30 9 -33 39 -41 45
-58 45 -14 0 -20 -11 -25 -46 -7 -51 1 -76 16 -49 9 15 12 15 34 -6 22 -21 22
-23 6 -36 -9 -7 -12 -12 -7 -12 6 1 23 -3 40 -10 18 -7 44 -10 65 -5 29 5 32
8 15 14 -18 6 -18 7 -1 17 13 7 5 9 -34 9 -45 -1 -54 3 -83 34 -33 36 -42 70
-20 77 7 3 13 -3 13 -12 0 -9 13 -30 30 -46 24 -24 36 -29 61 -25 45 7 71 33
58 58 -13 23 -2 39 11 18 7 -10 10 -11 10 -2 0 6 6 12 14 12 18 0 9 -48 -14
-75 -18 -21 -25 -65 -10 -65 5 0 7 11 4 25 -5 28 -1 30 26 15 13 -7 21 -6 30
5 10 12 9 16 -4 21 -9 3 -16 10 -16 16 0 5 5 6 11 3 6 -4 13 2 16 14 6 25 23
28 24 4 0 -13 3 -11 10 7 6 13 9 36 8 50 -1 14 1 41 5 60 7 35 -6 90 -21 90
-5 -1 -23 -14 -42 -30z"/>
<path d="M160 331 c0 -5 7 -12 16 -15 24 -9 28 -7 14 9 -14 17 -30 20 -30 6z"/>
<path d="M10 191 c0 -23 14 -41 31 -41 23 0 26 35 3 44 -22 9 -34 7 -34 -3z"/>
</g>
</svg>
